<?xml version="1.0" encoding="UTF-8"?>
<!DOCTYPE svg PUBLIC "-//W3C//DTD SVG 1.1//EN" "http://www.w3.org/Graphics/SVG/1.1/DTD/svg11.dtd">
<!-- Creator: CorelDRAW 2020 (64-Bit) -->
<svg xmlns="http://www.w3.org/2000/svg" xml:space="preserve" width="10.8759mm" height="11.4005mm" version="1.1" style="shape-rendering:geometricPrecision; text-rendering:geometricPrecision; image-rendering:optimizeQuality; fill-rule:evenodd; clip-rule:evenodd"
viewBox="0 0 192.84 202.14"
 xmlns:xlink="http://www.w3.org/1999/xlink"
 xmlns:xodm="http://www.corel.com/coreldraw/odm/2003">
 <defs>
  <style type="text/css">
   <![CDATA[
    .fil0 {fill:#FEFEFE}
   ]]>
  </style>
 </defs>
 <g id="Capa_x0020_1">
  <metadata id="CorelCorpID_0Corel-Layer"/>
  <path class="fil0" d="M58.71 82l-54.28 0.15 -0.16 41.25 55.67 0.02c-6.61,4.87 -22.59,7.87 -40.01,28.76 -9.75,11.69 -18.59,29.04 -19.81,49.65l42.66 0.01c1.89,-20.25 16.02,-42.72 33.36,-47.66l0.04 47.83 41.02 0.13 0.28 -49.63c18.87,4.63 35.18,26.94 37.14,49.31l38.01 0.02c-0.95,-31 -22.29,-58.9 -47.82,-72.45 -3.6,-1.91 -8.62,-3.47 -11.78,-5.86l51.73 -0.16 0.24 -41.22 -50.94 -0.05c14.12,-9.12 25.17,-10.49 40.43,-30.19 9.7,-12.52 18.92,-30.76 18.33,-51.92l-42.61 0.01c-2.5,20.34 -12.31,40.97 -32.72,48.37l-0.03 -47.75 -41.26 0.02 -0.04 49.95c-9.96,-2.2 -21.87,-12.37 -26.22,-18.07 -7.91,-10.35 -9.96,-17.11 -12.14,-32.51l-37.71 -0.02c-1.63,31.69 20.44,61.61 46.4,75.83 3.53,1.94 8.97,3.62 12.23,6.17z"/>
 </g>
</svg>
